<svg xmlns="http://www.w3.org/2000/svg" viewBox="0 0 152.09 152.09"><defs><style>.cls-1,.cls-2{fill:none;stroke:#003746;stroke-miterlimit:10;}.cls-1{stroke-width:3px;}.cls-2{stroke-linecap:round;stroke-width:1.5px;stroke-dasharray:3.98 3.98;}.cls-3{fill:#003746;}</style></defs><title>Asset 8</title><g id="Layer_2" data-name="Layer 2"><g id="Logo_Light"><circle class="cls-1" cx="76.05" cy="76.05" r="74.55"/><circle class="cls-2" cx="76.05" cy="76.05" r="67.18"/><g id="Logo_Rasterized"><path class="cls-3" d="M32.22,78l.62,1.67,68.35-25.18-51.1,29.6L33,76.43,32.22,78l.62,1.67L32.22,78l-.72,1.62,18,8.07a1.75,1.75,0,0,0,1.62-.08L120.76,47.3a1.77,1.77,0,0,0,.72-2.29,1.79,1.79,0,0,0-2.22-.91L31.61,76.38a1.77,1.77,0,0,0-.11,3.28Z"/><path class="cls-3" d="M60.08,92.16l-.73,1.62L82.5,104.24a1.78,1.78,0,0,0,2.22-.66l36.64-56.85a1.77,1.77,0,0,0-2.58-2.36L59,90.76a1.8,1.8,0,0,0-.67,1.61,1.77,1.77,0,0,0,1,1.41l.73-1.62,1.09,1.41,51.59-40L82.57,100.38,60.81,90.55l-.73,1.61,1.09,1.41Z"/><path class="cls-3" d="M67,94.62l-8.91,8.53L51.86,85.53a1.77,1.77,0,1,0-3.34,1.18l7.13,20.21a1.78,1.78,0,0,0,2.9.69L69.44,97.18A1.77,1.77,0,1,0,67,94.62Z"/><path class="cls-3" d="M58.34,91.83,55.58,106a1.77,1.77,0,0,0,3.48.68L61.82,92.5a1.77,1.77,0,1,0-3.48-.67"/></g></g></g></svg>