<svg xmlns="http://www.w3.org/2000/svg" viewBox="0 0 284.19 161.03"><defs><style>.cls-1{fill:#fff;}</style></defs><title>Asset 7</title><g id="Layer_2" data-name="Layer 2"><g id="Logo_Dark"><g id="Logo_Rasterized"><path class="cls-1" d="M1.77,34.05l.62,1.66L70.74,10.54,19.64,40.13,2.5,32.43l-.73,1.62.62,1.66-.62-1.66-.72,1.62,18,8.07a1.81,1.81,0,0,0,1.62-.08L90.31,3.31a1.77,1.77,0,0,0-1.5-3.2L1.16,32.39A1.76,1.76,0,0,0,0,34a1.79,1.79,0,0,0,1.05,1.68Z"/><path class="cls-1" d="M29.63,48.17l-.73,1.62L52.05,60.25a1.78,1.78,0,0,0,2.22-.66L90.91,2.73A1.77,1.77,0,0,0,88.33.37L28.54,46.77a1.78,1.78,0,0,0,.36,3l.73-1.62,1.09,1.4,51.59-40L52.12,56.39,30.36,46.55l-.73,1.62,1.09,1.4Z"/><path class="cls-1" d="M36.54,50.63l-8.91,8.52L21.41,41.53a1.77,1.77,0,0,0-3.34,1.18L25.2,62.92a1.77,1.77,0,0,0,1.26,1.14,1.75,1.75,0,0,0,1.63-.45L39,53.19a1.77,1.77,0,0,0-2.45-2.56Z"/><path class="cls-1" d="M27.89,47.83,25.13,62a1.77,1.77,0,0,0,3.48.68l2.76-14.16a1.77,1.77,0,0,0-3.48-.68"/><path class="cls-1" d="M93.19,145.7c1.77.21,3.55.37,5.34.47a.66.66,0,1,0,.08-1.32c-1.77-.1-3.52-.26-5.26-.47a.68.68,0,0,0-.74.58.67.67,0,0,0,.58.74Zm-10.52-2q2.58.66,5.23,1.16a.66.66,0,1,0,.24-1.3c-1.73-.33-3.45-.71-5.14-1.15a.67.67,0,1,0-.33,1.29Zm-10.18-3.35q2.48,1,5,1.84a.66.66,0,0,0,.42-1.26c-1.68-.55-3.33-1.16-5-1.81a.66.66,0,1,0-.5,1.23Zm-9.64-4.68c1.55.88,3.13,1.72,4.74,2.5a.67.67,0,0,0,.58-1.2q-2.39-1.16-4.66-2.46a.67.67,0,1,0-.66,1.16Zm-8.91-6c1.41,1.09,2.86,2.14,4.35,3.13a.66.66,0,0,0,.92-.18.65.65,0,0,0-.18-.92c-1.46-1-2.89-2-4.27-3.08a.68.68,0,0,0-.94.12A.67.67,0,0,0,53.94,129.73Zm-8-7.13c1.24,1.28,2.54,2.52,3.87,3.71a.67.67,0,1,0,.89-1c-1.32-1.17-2.58-2.39-3.8-3.64a.66.66,0,0,0-1,.92Zm-6.89-8.2c1,1.44,2.15,2.86,3.3,4.23a.67.67,0,0,0,1-.86q-1.7-2-3.24-4.15a.66.66,0,0,0-.93-.15A.68.68,0,0,0,39.06,114.4Zm-5.6-9.15c.82,1.59,1.7,3.16,2.63,4.68a.66.66,0,0,0,.91.22.65.65,0,0,0,.22-.91q-1.36-2.25-2.57-4.59a.67.67,0,0,0-1.19.6Zm-4.13-9.9c.56,1.71,1.18,3.38,1.87,5a.67.67,0,0,0,1.23-.51q-1-2.43-1.84-4.93a.67.67,0,0,0-.84-.43.66.66,0,0,0-.42.84ZM26.8,84.92c.28,1.78.64,3.53,1.06,5.26a.65.65,0,0,0,.8.49.67.67,0,0,0,.49-.8q-.62-2.55-1-5.16a.66.66,0,1,0-1.31.21ZM26,74.23c0,1.8.07,3.59.21,5.36a.65.65,0,0,0,.71.61.66.66,0,0,0,.61-.71c-.14-1.74-.21-3.49-.21-5.26a.66.66,0,1,0-1.32,0Z"/><path class="cls-1" d="M100.87,86.12h16.36V50.34c0-7.45,2.52-11.23,5.46-11.23s5.56,4.09,5.56,5.56-2.83-.94-2.83,7.87v65.79c0,1.78-1.37,2.41-2.94,2.41-2.41,0-5.25-1.47-5.25-3V93.46H100.87v24.87c0,1.78-1.37,2.41-2.94,2.41-2.42,0-5.25-1.47-5.25-3V93.46H85.23c-2.2,0-3.78-3-3.78-5.25,0-1.15.53-2.09,1.58-2.09h9.65V52.22c-12.91,0-22.24,8.92-22.24,23,0,8.82,4.19,14.48,5.56,14.48.63,0,.73-.52,1.26-.52s.63.94.63,1.68c0,4.41-3.89,8.18-6.93,6-3.67-2.62-8.81-9.76-8.81-21.3,0-22.25,18.57-31.17,34.52-31.17a4.33,4.33,0,0,1,4.2,4.41Z"/><path class="cls-1" d="M174.84,99.34c1.68,0,3.67,2.31,3.67,4.3a5.08,5.08,0,0,1-.1,1c-3.57,12.17-9.66,18.36-15.32,23.29v18.16c0,11-5.56,14.89-10.92,14.89-5.87,0-10.07-5.35-10.07-12.06,0-10.6,6.09-15.95,13-22V113.61c-2.52,4.19-5.77,7.24-10.28,7.24-7,0-11.12-6-11.12-15.11,0-11.12,3.77-23.61,3.77-23.61.74-1.79,0-3.88,5.57-3.88,5.14,0,2.09,4.19,1.67,5.77-1.88,7.76-3,12.38-3,21.19,0,5.67,1.79,8.71,4.83,8.71,4.2,0,7.34-6.82,8.6-14.16V82.86a22.41,22.41,0,0,0-.42-3.35c0-1.05,1.26-1.79,2.73-1.79,3.46,0,5.67,2.1,5.67,4.62v36.83a41.64,41.64,0,0,0,9.23-16.68C173,100.28,173.79,99.34,174.84,99.34Zm-19.73,46.8V134.91a18.3,18.3,0,0,0-5.66,13.74c0,3.26,1.05,5.77,2.72,5.77C155.53,154.42,155.11,148.13,155.11,146.14Z"/><path class="cls-1" d="M192.05,126.93v-11a12,12,0,0,1-8.61,3.77c-8.18,0-12.49-6.92-12.49-15.84,0-17.52,12.18-28.23,25-28.23,2.83,0,4.82,1.68,4.82,4.41,0,1.78-.31,2.41-1.36,2.41s-2-.21-3-.21c-8,0-17.32,6.82-17.32,21.93,0,5.46,2.31,8.61,6,8.61,4.19,0,6.29-5.56,7-9.76V91.15a22.41,22.41,0,0,0-.42-3.35c0-1,1.26-1.79,2.72-1.79,3.47,0,5.67,2.1,5.67,4.62v28.54a41.52,41.52,0,0,0,9.23-16.68c.63-2.21,1.47-3.15,2.52-3.15,1.68,0,3.68,2.31,3.68,4.3a4.63,4.63,0,0,1-.11,1c-3.57,12.17-9.65,18.36-15.32,23.29v18.16c0,11-5.56,14.89-10.91,14.89C183.23,161,179,155.68,179,149,179,138.37,185.12,133,192.05,126.93Zm0,19.21V134.91a18.31,18.31,0,0,0-5.67,13.74c0,3.26,1.05,5.77,2.73,5.77C192.47,154.42,192.05,148.13,192.05,146.14Z"/><path class="cls-1" d="M229,126.93v-11a12,12,0,0,1-8.61,3.77c-8.18,0-12.48-6.92-12.48-15.84,0-17.52,12.17-28.23,25-28.23,2.83,0,4.83,1.68,4.83,4.41,0,1.78-.32,2.41-1.37,2.41s-2-.21-3-.21c-8,0-17.31,6.82-17.31,21.93,0,5.46,2.31,8.61,6,8.61,4.2,0,6.29-5.56,7-9.76V91.15a22.41,22.41,0,0,0-.42-3.35c0-1,1.26-1.79,2.73-1.79,3.46,0,5.66,2.1,5.66,4.62v28.54a41.53,41.53,0,0,0,9.24-16.68c.63-2.21,1.47-3.15,2.52-3.15,1.67,0,3.67,2.31,3.67,4.3a4.63,4.63,0,0,1-.11,1c-3.56,12.17-9.65,18.36-15.32,23.29v18.16c0,11-5.56,14.89-10.91,14.89C220.16,161,216,155.68,216,149,216,138.37,222.05,133,229,126.93Zm0,19.21V134.91a18.31,18.31,0,0,0-5.67,13.74c0,3.26,1.05,5.77,2.73,5.77C229.4,154.42,229,148.13,229,146.14Z"/><path class="cls-1" d="M255.21,107.31a9.77,9.77,0,0,0,9.76,6.51c8.18,0,11.54-6.82,12.8-13.22.94-4.72,6.82-2.63,6.4,1.05-.74,6.4-4.93,19.09-20.36,19.09-9.54,0-18.57-7.66-18.57-20.77,0-13.33,8-23.3,16.05-23.3,5.88,0,9.45,4.3,9.45,10.6A21.54,21.54,0,0,1,255.21,107.31ZM254,101.54a15.28,15.28,0,0,0,8.6-14.16c0-2.31-.83-3.68-2.2-3.68-5.14,0-6.71,11.55-6.5,16C253.85,100.28,254,100.91,254,101.54Z"/><path class="cls-1" d="M143.46,60.41v.25h-3v8.43h-.25V60.66h-3v-.25Z"/><path class="cls-1" d="M152,66l2.25,3.08h-.31l-2.21-3a6.6,6.6,0,0,1-.8,0h-2.69v3h-.25V60.41h2.94c2.11,0,3.32,1,3.32,2.82A2.64,2.64,0,0,1,152,66Zm-1.07-.15c2,0,3.07-1,3.07-2.63s-1.12-2.57-3.07-2.57h-2.69v5.2Z"/><path class="cls-1" d="M164.93,66.45h-5.26l-1.21,2.64h-.3l4-8.68h.27l4,8.68h-.28Zm-.12-.25-2.54-5.5-2.49,5.5Z"/><path class="cls-1" d="M169.2,60.41l3.47,8.4,3.47-8.4h.3l-3.63,8.68h-.27l-3.63-8.68Z"/><path class="cls-1" d="M186.3,60.41v.25h-5.18V64.5h4.61v.25h-4.61v4.09h5.36v.25h-5.61V60.41Z"/><path class="cls-1" d="M191.84,60.41v8.43h3.89v.25H191.6V60.41Z"/><path class="cls-1" d="M212.17,66.45h-5.26l-1.2,2.64h-.3l4-8.68h.27l4,8.68h-.29Zm-.12-.25-2.53-5.5L207,66.2Z"/><path class="cls-1" d="M224.41,64.83V68a4.54,4.54,0,0,1-3,1.13,4.34,4.34,0,1,1,0-8.68,4.56,4.56,0,0,1,3,1.12l-.17.16a4.16,4.16,0,1,0-2.81,7.17,4.25,4.25,0,0,0,2.74-1v-3Z"/><path class="cls-1" d="M235.52,60.41v.25h-5.18V64.5h4.6v.25h-4.6v4.09h5.35v.25h-5.6V60.41Z"/><path class="cls-1" d="M241.18,60.41l6.12,8.43V60.41h.25v8.68h-.37l-6.12-8.43v8.43h-.25V60.41Z"/><path class="cls-1" d="M256.94,60.65a4.11,4.11,0,1,0,0,8.21,4.24,4.24,0,0,0,2.82-1.06l.18.16a4.55,4.55,0,0,1-3,1.13,4.34,4.34,0,1,1,0-8.68,4.56,4.56,0,0,1,3,1.12l-.17.16A4.22,4.22,0,0,0,256.94,60.65Z"/><path class="cls-1" d="M267.26,65.75v3.34H267V65.75l-3.54-5.34h.3l3.36,5.09,3.32-5.09h.3Z"/></g></g></g></svg>